<svg id="visual" viewBox="0 0 900 600" width="900" height="600" xmlns="http://www.w3.org/2000/svg" xmlns:xlink="http://www.w3.org/1999/xlink" version="1.1"><path d="M0 121L82 121L82 187L164 187L164 157L245 157L245 109L327 109L327 235L409 235L409 211L491 211L491 157L573 157L573 253L655 253L655 115L736 115L736 145L818 145L818 169L900 169L900 229L900 0L900 0L818 0L818 0L736 0L736 0L655 0L655 0L573 0L573 0L491 0L491 0L409 0L409 0L327 0L327 0L245 0L245 0L164 0L164 0L82 0L82 0L0 0Z" fill="#4facf7"></path><path d="M0 175L82 175L82 349L164 349L164 283L245 283L245 229L327 229L327 313L409 313L409 343L491 343L491 307L573 307L573 373L655 373L655 241L736 241L736 313L818 313L818 229L900 229L900 385L900 227L900 167L818 167L818 143L736 143L736 113L655 113L655 251L573 251L573 155L491 155L491 209L409 209L409 233L327 233L327 107L245 107L245 155L164 155L164 185L82 185L82 119L0 119Z" fill="#3b81bc"></path><path d="M0 271L82 271L82 433L164 433L164 349L245 349L245 307L327 307L327 397L409 397L409 433L491 433L491 421L573 421L573 439L655 439L655 361L736 361L736 355L818 355L818 331L900 331L900 469L900 383L900 227L818 227L818 311L736 311L736 239L655 239L655 371L573 371L573 305L491 305L491 341L409 341L409 311L327 311L327 227L245 227L245 281L164 281L164 347L82 347L82 173L0 173Z" fill="#275984"></path><path d="M0 547L82 547L82 547L164 547L164 553L245 553L245 535L327 535L327 523L409 523L409 499L491 499L491 559L573 559L573 541L655 541L655 517L736 517L736 535L818 535L818 505L900 505L900 547L900 467L900 329L818 329L818 353L736 353L736 359L655 359L655 437L573 437L573 419L491 419L491 431L409 431L409 395L327 395L327 305L245 305L245 347L164 347L164 431L82 431L82 269L0 269Z" fill="#133350"></path><path d="M0 601L82 601L82 601L164 601L164 601L245 601L245 601L327 601L327 601L409 601L409 601L491 601L491 601L573 601L573 601L655 601L655 601L736 601L736 601L818 601L818 601L900 601L900 601L900 545L900 503L818 503L818 533L736 533L736 515L655 515L655 539L573 539L573 557L491 557L491 497L409 497L409 521L327 521L327 533L245 533L245 551L164 551L164 545L82 545L82 545L0 545Z" fill="#001122"></path></svg>